<svg width="404" height="112" viewBox="0 0 404 112" fill="none" xmlns="http://www.w3.org/2000/svg">
<g clip-path="url(#clip0_4610_11831)">
<path fill-rule="evenodd" clip-rule="evenodd" d="M112 56C112 86.928 86.879 112 55.89 112C26.59 112 2.534 89.586 0 61H73.925V50H0.098C3.098 21.893 26.932 0 55.89 0C86.879 0 112 25.072 112 56ZM324.983 33.756C324.491 29.486 322.496 26.17 318.998 23.811C315.5 21.451 311.21 20.271 306.128 20.271C302.411 20.271 299.159 20.889 296.372 22.125C293.612 23.361 291.454 25.061 289.896 27.224C288.366 29.387 287.601 31.845 287.601 34.598C287.601 36.902 288.133 38.883 289.199 40.54C290.298 42.1749 291.721 43.5664 293.38 44.628C295.062 45.6897 296.847 46.5792 298.708 47.283C300.393 47.9014 302.102 48.4495 303.832 48.926L312.358 51.286C314.544 51.876 316.976 52.691 319.654 53.73C322.359 54.77 324.942 56.188 327.401 57.986C329.888 59.756 331.937 62.032 333.55 64.813C335.162 67.594 335.968 71.008 335.968 75.053C335.968 79.717 334.779 83.931 332.402 87.695C330.052 91.46 326.609 94.452 322.073 96.671C317.564 98.891 312.085 100 305.636 100C299.624 100 294.418 99.003 290.019 97.008C285.647 95.013 282.204 92.232 279.689 88.664C277.203 85.096 275.796 80.953 275.468 76.233H285.961C286.234 79.492 287.3 82.189 289.158 84.324C291.044 86.431 293.421 88.004 296.29 89.044C299.187 90.054 302.302 90.561 305.636 90.561C309.516 90.561 313 89.915 316.088 88.622C319.176 87.302 321.622 85.476 323.425 83.144C325.229 80.784 326.13 78.031 326.13 74.884C326.13 72.019 325.352 69.687 323.794 67.889C322.237 66.091 320.187 64.63 317.646 63.507C315.104 62.383 312.358 61.4 309.407 60.557L299.078 57.523C292.519 55.584 287.327 52.817 283.501 49.221C279.676 45.625 277.763 40.919 277.763 35.104C277.763 30.272 279.034 26.058 281.575 22.462C284.144 18.838 287.587 16.029 291.904 14.034C296.249 12.011 301.1 11 306.456 11C311.866 11 316.676 11.997 320.884 13.992C325.092 15.958 328.426 18.655 330.885 22.082C333.372 25.51 334.684 29.402 334.82 33.756H324.983ZM126 12.18V98.483H156.332C162.945 98.483 168.315 97.472 172.441 95.449C176.567 93.426 179.587 90.687 181.5 87.231C183.412 83.776 184.369 79.885 184.369 75.559C184.369 71.008 183.494 67.159 181.746 64.012C179.997 60.866 177.824 58.45 175.228 56.764C172.632 55.079 170.05 54.152 167.481 53.983V53.14C169.865 52.4757 172.123 51.4222 174.163 50.022C176.239 48.617 177.906 46.707 179.163 44.291C180.448 41.875 181.09 38.813 181.09 35.104C181.09 30.89 180.161 27.055 178.302 23.6C176.444 20.116 173.616 17.35 169.818 15.298C166.019 13.219 161.196 12.18 155.348 12.18H126ZM156.332 89.212H136.165V59.208H156.824C160.486 59.208 163.656 59.967 166.333 61.484C169.011 62.973 171.075 64.967 172.523 67.468C173.971 69.94 174.695 72.637 174.695 75.558C174.695 79.351 173.288 82.582 170.473 85.251C167.686 87.891 162.972 89.212 156.332 89.212ZM155.021 50.106H136.165V21.451H155.348C160.923 21.451 164.995 22.785 167.563 25.454C170.132 28.095 171.416 31.311 171.416 35.104C171.416 38.138 170.678 40.779 169.203 43.027C167.754 45.274 165.787 47.016 163.3 48.252C160.841 49.488 158.081 50.106 155.021 50.106ZM193.858 98.483H204.515L212.955 74.042H246.902L255.342 98.482H265.999L235.175 12.18H224.682L193.858 98.483ZM243.701 64.771L230.256 25.833H229.601L216.156 64.771H243.701ZM352.681 12.18V98.483H404V89.213H362.847V59.883H400.721V50.612H362.847V21.45H403.344V12.18H352.681Z" fill="#2151F5"/>
</g>
<defs>
<clipPath id="clip0_4610_11831">
<rect width="404" height="112" fill="white"/>
</clipPath>
</defs>
</svg>
