<svg width="24" height="24" viewBox="0 0 24 24" fill="none" xmlns="http://www.w3.org/2000/svg">
<g clip-path="url(#clip0_4270_52976)">
<path d="M12 24C18.6243 24 24 18.6243 24 12C24 5.37566 18.6243 0 12 0C5.37566 0 0 5.37566 0 12C0 18.6243 5.37566 24 12 24Z" fill="#333333"/>
<g clip-path="url(#clip1_4270_52976)">
<path d="M8.82374 10.7233L11.931 7.61624L15.0398 10.725L16.8478 8.91698L11.931 4L7.01575 8.91534L8.82374 10.7233Z" fill="#F3BA2F"/>
<path d="M7.54692 11.9994L5.73895 10.1914L3.9309 11.9995L5.73886 13.8074L7.54692 11.9994Z" fill="#F3BA2F"/>
<path d="M8.82371 13.2769L11.9309 16.384L15.0397 13.2754L16.8487 15.0824L16.8478 15.0834L11.9309 20.0002L7.01559 15.085L7.01306 15.0825L8.82371 13.2769Z" fill="#F3BA2F"/>
<path d="M18.1231 13.809L19.9312 12.001L18.1232 10.193L16.3151 12.0011L18.1231 13.809Z" fill="#F3BA2F"/>
<path d="M13.7648 11.9987H13.7656L11.9309 10.1641L10.5751 11.5199H10.575L10.4193 11.6757L10.0979 11.9971L10.0954 11.9996L10.0979 12.0023L11.9309 13.8353L13.7656 12.0006L13.7665 11.9996L13.7648 11.9987Z" fill="#F3BA2F"/>
</g>
</g>
<defs>
<clipPath id="clip0_4270_52976">
<rect width="24" height="24" fill="white"/>
</clipPath>
<clipPath id="clip1_4270_52976">
<rect width="16" height="16" fill="white" transform="translate(4 4)"/>
</clipPath>
</defs>
</svg>
