<svg width="40" height="40" viewBox="0 0 40 40" fill="none" xmlns="http://www.w3.org/2000/svg">
<g id="Check-notion">
<path id="Vector" d="M20.0007 6.4585C23.5921 6.4585 27.0365 7.8852 29.5761 10.4248C32.1156 12.9643 33.5423 16.4087 33.5423 20.0002C33.5423 23.5916 32.1156 27.036 29.5761 29.5756C27.0365 32.1151 23.5921 33.5418 20.0007 33.5418C16.4092 33.5418 12.9648 32.1151 10.4252 29.5756C7.88569 27.036 6.45898 23.5916 6.45898 20.0002C6.45898 16.4087 7.88569 12.9643 10.4252 10.4248C12.9648 7.8852 16.4092 6.4585 20.0007 6.4585ZM20.0007 36.6668C24.4209 36.6668 28.6602 34.9109 31.7858 31.7853C34.9114 28.6597 36.6673 24.4204 36.6673 20.0002C36.6673 15.5799 34.9114 11.3407 31.7858 8.21505C28.6602 5.08944 24.4209 3.3335 20.0007 3.3335C15.5804 3.3335 11.3411 5.08944 8.21554 8.21505C5.08993 11.3407 3.33398 15.5799 3.33398 20.0002C3.33398 24.4204 5.08993 28.6597 8.21554 31.7853C11.3411 34.9109 15.5804 36.6668 20.0007 36.6668ZM27.3574 16.9403C27.9694 16.3283 27.9694 15.3387 27.3574 14.7332C26.7454 14.1278 25.7559 14.1213 25.1504 14.7332L17.9238 21.9598L14.8639 18.8999C14.252 18.2879 13.2624 18.2879 12.6569 18.8999C12.0514 19.5119 12.0449 20.5015 12.6569 21.1069L16.8236 25.2736C17.4355 25.8856 18.4251 25.8856 19.0306 25.2736L27.3574 16.9403Z" fill="#8D33FF"/>
</g>
</svg>
