<svg width="1243" height="256" viewBox="0 0 1243 256" fill="none" xmlns="http://www.w3.org/2000/svg">
<path fill-rule="evenodd" clip-rule="evenodd" d="M0.202881 255.743H37.3074L127.952 70.1176L217.849 255.743H255.203L131.189 0.742554H124.964L0.202881 255.743Z" fill="#BE82F3"/>
<path fill-rule="evenodd" clip-rule="evenodd" d="M0.202881 0.742554H37.3074L127.952 186.368L217.849 0.742554H255.203L131.189 255.743H124.964L0.202881 0.742554Z" fill="#564DD0"/>
<path d="M365.883 70.723H389.107L346.581 186.017H322.101L280.203 70.723H303.584L334.655 159.194L365.883 70.723Z" fill="#261047"/>
<path fill-rule="evenodd" clip-rule="evenodd" d="M453.895 151.507C454.366 148.37 454.366 146.174 454.366 143.664C454.366 118.723 439.302 101.468 415.606 101.468C391.44 101.468 374.179 119.978 374.179 145.547C374.179 170.487 390.342 188.37 416.548 188.37C431.926 188.37 445.265 182.723 453.268 170.958L438.831 157.782C434.594 167.194 427.846 171.429 417.176 171.429C405.877 171.429 397.717 165.782 395.834 151.507H453.895ZM395.991 137.076C398.031 124.056 405.407 118.409 414.978 118.409C426.277 118.409 432.711 125.939 432.711 137.076H395.991Z" fill="#261047"/>
<path d="M464.074 70.723H484.474V186.017H464.074V70.723Z" fill="#261047"/>
<path d="M555.18 104.448H576.992L544.196 186.017H522.697L489.273 104.448H511.713L533.525 162.174L555.18 104.448Z" fill="#261047"/>
<path fill-rule="evenodd" clip-rule="evenodd" d="M656.239 151.507C656.71 148.37 656.71 146.174 656.71 143.664C656.71 118.723 641.646 101.468 617.951 101.468C593.784 101.468 576.523 119.978 576.523 145.547C576.523 170.487 592.686 188.37 618.892 188.37C634.271 188.37 647.609 182.723 655.612 170.958L641.175 157.782C636.938 167.194 630.191 171.429 619.52 171.429C608.221 171.429 600.062 165.782 598.178 151.507H656.239ZM598.335 137.076C600.375 124.056 607.75 118.409 617.323 118.409C628.621 118.409 635.055 125.939 635.055 137.076H598.335Z" fill="#261047"/>
<path d="M715.692 121.703H692.781V158.095C692.781 167.351 696.077 169.703 703.923 169.703C706.748 169.703 711.769 169.076 714.751 168.449V186.174C711.926 187.272 703.766 188.056 701.098 188.056C682.425 188.056 672.382 180.213 672.382 160.919V121.703H657.631V104.448H672.382V88.7622L692.781 73.3896V104.448H715.692V121.703Z" fill="#261047"/>
<path d="M808.457 67.7426C830.582 67.7426 850.827 78.2523 860.398 97.7033L842.983 109.311C837.958 95.821 824.933 86.8798 808.3 86.8798C786.175 86.8798 769.698 102.566 769.698 128.134C769.698 153.076 785.703 169.233 807.99 169.233C824.465 169.233 838.588 160.762 843.608 146.331L861.028 157.939C850.827 177.39 831.684 188.37 808.3 188.37C774.094 188.37 748.2 164.056 748.2 127.978C748.2 91.272 775.506 67.7426 808.457 67.7426Z" fill="#261047"/>
<path fill-rule="evenodd" clip-rule="evenodd" d="M924.765 186.017H942.968L940.143 169.39V130.331C940.143 111.664 926.335 101.625 904.682 101.625C885.377 101.625 871.254 112.448 868.272 127.821L886.322 134.723C886.322 124.056 893.536 117.468 904.682 117.468C913.939 117.468 920.213 121.076 920.213 128.134C920.213 134.761 917.033 135.315 896.923 138.818C896.086 138.964 895.22 139.115 894.324 139.272C877.691 142.252 867.017 150.252 867.017 164.37C867.017 179.272 878.473 188.213 894.949 188.213C905.937 188.213 915.823 183.821 921.315 176.448L924.765 186.017ZM920.213 153.39C920.213 164.527 913.624 172.997 899.658 172.997C892.439 172.997 888.359 168.762 888.359 163.272C888.359 156.84 893.069 153.86 900.13 152.449C913.466 150.095 917.861 149.311 920.213 147.429V153.39Z" fill="#261047"/>
<path fill-rule="evenodd" clip-rule="evenodd" d="M1041.39 145.233C1041.39 120.291 1024.44 101.468 1000.28 101.468C988.507 101.468 979.408 106.017 973.128 112.919V104.448H952.731V219.743H973.128L972.971 177.076C979.093 183.978 987.882 188.37 1000.12 188.37C1024.44 188.37 1041.39 169.86 1041.39 145.233ZM1020.21 145.233C1020.21 159.978 1010.01 169.86 996.198 169.86C983.172 169.86 972.503 160.292 972.503 145.233C972.503 129.86 983.172 119.978 996.198 119.978C1010.01 119.978 1020.21 130.174 1020.21 145.233Z" fill="#261047"/>
<path d="M1048.77 70.723H1069.96V91.1151H1048.77V70.723Z" fill="#261047"/>
<path d="M1049.09 104.448H1069.49V186.017H1049.09V104.448Z" fill="#261047"/>
<path d="M1133.33 121.703H1110.42V158.095C1110.42 167.351 1113.71 169.703 1121.56 169.703C1124.38 169.703 1129.4 169.076 1132.39 168.449V186.174C1129.56 187.272 1121.4 188.056 1118.74 188.056C1100.06 188.056 1090.02 180.213 1090.02 160.919V121.703H1075.26V104.448H1090.02V88.7622L1110.42 73.3896V104.448H1133.33V121.703Z" fill="#261047"/>
<path fill-rule="evenodd" clip-rule="evenodd" d="M1196.19 186.017H1214.39L1211.57 169.39V130.331C1211.57 111.664 1197.76 101.625 1176.11 101.625C1156.8 101.625 1142.68 112.448 1139.7 127.821L1157.75 134.723C1157.75 124.056 1164.96 117.468 1176.11 117.468C1185.37 117.468 1191.64 121.076 1191.64 128.134C1191.64 134.76 1188.46 135.315 1168.36 138.817C1167.52 138.963 1166.65 139.115 1165.75 139.272C1149.12 142.252 1138.44 150.252 1138.44 164.37C1138.44 179.272 1149.9 188.213 1166.38 188.213C1177.36 188.213 1187.25 183.821 1192.74 176.448L1196.19 186.017ZM1191.64 153.39C1191.64 164.527 1185.05 172.997 1171.08 172.997C1163.87 172.997 1159.79 168.762 1159.79 163.272C1159.79 156.84 1164.5 153.86 1171.56 152.449C1184.89 150.095 1189.29 149.311 1191.64 147.429V153.39Z" fill="#261047"/>
<path d="M1221.8 70.723H1242.2V186.017H1221.8V70.723Z" fill="#261047"/>
</svg>
